<?xml version="1.0" encoding="utf-8"?>
<!-- Generator: Adobe Illustrator 27.0.0, SVG Export Plug-In . SVG Version: 6.00 Build 0)  -->
<svg version="1.1" id="Layer_1" xmlns="http://www.w3.org/2000/svg" xmlns:xlink="http://www.w3.org/1999/xlink" x="0px" y="0px"
	 viewBox="0 0 453.54 255.12" style="enable-background:new 0 0 453.54 255.12;" xml:space="preserve">
<style type="text/css">
	.st0{fill:#8FB5BC;}
	.st1{fill:#FFFFFF;}
	.st2{fill:none;stroke:#FFFFFF;stroke-width:5.9105;stroke-miterlimit:10;}
	.st3{fill:none;stroke:#FFFFFF;stroke-width:5.7903;stroke-miterlimit:10;}
	.st4{fill:none;stroke:#FFFFFF;stroke-width:5.5676;stroke-miterlimit:10;}
	.st5{fill:#FFFFFF;stroke:#FFFFFF;stroke-width:1.0759;stroke-miterlimit:10;}
</style>
<path class="st0" d="M351.26,173.11H111.77c-9.2,0-16.73-7.53-16.73-16.73V98.74c0-9.2,7.53-16.73,16.73-16.73h239.49
	c9.2,0,16.73,7.53,16.73,16.73v57.65C367.99,165.58,360.46,173.11,351.26,173.11z"/>
<g>
	<g>
		<g>
			<path class="st1" d="M192.85,134.8v-28.19c0-0.53,0.47-0.94,1-0.94h5.55c0.53,0,1,0.4,1,0.94v28.13c0,5.81,3.07,7.75,5.61,8.35
				c0.4,0.13,0.6,0.47,0.6,0.87v4.41c0,0.67-0.47,1.14-1.07,1.07C200.4,148.77,192.92,145.89,192.85,134.8z M209.29,148.37v-4.41
				c0-0.4,0.27-0.74,0.67-0.87c2.47-0.6,5.48-2.67,5.55-8.28v-28.19c0-0.53,0.4-0.94,0.94-0.94h5.55c0.53,0,1,0.4,1,0.94v28.19
				c-0.07,11.16-7.48,13.96-12.56,14.63C209.75,149.5,209.29,149.03,209.29,148.37z"/>
			<path class="st1" d="M228.86,110.75v-4.14c0-0.53,0.47-0.94,1-0.94h29.13c0.53,0,0.94,0.4,0.94,0.94v4.14c0,0.53-0.4,1-0.94,1
				h-29.13C229.33,111.76,228.86,111.29,228.86,110.75z M240.69,147.7v-32.34c0-0.53,0.4-0.94,0.94-0.94h5.61
				c0.53,0,0.94,0.4,0.94,0.94v32.34c0,0.53-0.4,1-0.94,1h-5.61C241.09,148.7,240.69,148.23,240.69,147.7z"/>
			<path class="st1" d="M298.55,147.7v-41.09c0-0.53,0.47-0.94,1-0.94h14.56c8.28,0,14.23,5.34,14.23,13.7
				c0,10.76-5.61,15.9-14.63,15.9c-1.54,0-3.07-0.2-4.28-0.53c-0.4-0.07-0.67-0.4-0.67-0.87v-4.28c0-0.67,0.47-1.14,1.14-1.07
				c1.2,0.33,2.67,0.47,4.01,0.47c4.54,0,7.01-2.61,7.01-9.62c0-4.81-2.67-7.95-8.42-7.95l-6.41,0.07v36.21c0,0.53-0.47,1-1,1h-5.55
				C299.01,148.7,298.55,148.23,298.55,147.7z"/>
			<path class="st1" d="M334.16,147.7v-41.09c0-0.53,0.47-0.94,1-0.94h5.54c0.53,0,1,0.4,1,0.94v41.09c0,0.53-0.47,1-1,1h-5.54
				C334.62,148.7,334.16,148.23,334.16,147.7z"/>
		</g>
		<path class="st2" d="M265.99,129.56c0,0,5.35-18.06,5.47-18.31c2.11-4.3,8.36-3.54,9.43,0c0.14,0.48,9.63,35.92,8.65,34.34
			l-26.73,0.05"/>
	</g>
	<path class="st3" d="M267.26,145.83h-5.19c-0.08,0-0.15-0.07-0.15-0.15v-0.08c0-0.08,0.07-0.15,0.15-0.15h5.19
		c0.08,0,0.15,0.07,0.15,0.15v0.08C267.4,145.76,267.34,145.83,267.26,145.83z"/>
	<path class="st4" d="M265.86,129.66l1.39-5.04c0.02-0.07,0.09-0.11,0.16-0.09l0.03,0.01c0.07,0.02,0.11,0.09,0.09,0.16l-1.39,5.04
		c-0.02,0.07-0.09,0.11-0.16,0.09l-0.03-0.01C265.88,129.8,265.84,129.73,265.86,129.66z"/>
</g>
<g>
	<path class="st5" d="M158.34,131.03c-0.05-0.53,0.36-0.95,0.76-0.95h4.82c0.41,0,0.71,0.36,0.71,0.89
		c0.41,9.36,4.01,12.68,7.62,12.68c4.01,0,7.26-3.26,7.67-12.68c0-0.47,0.36-0.89,0.76-0.89h4.77c0.46,0,0.81,0.41,0.81,0.95
		c-0.66,13.69-7.16,17.83-14.01,17.83C165.8,148.87,159,144.78,158.34,131.03z M158.34,123.88c0.71-13.27,7.56-17.73,14.06-17.73
		c6.4,0,13.1,4.58,13.81,17.73c0.05,0.59-0.36,1.01-0.76,1.01h-4.82c-0.41,0-0.71-0.36-0.71-0.89c-0.36-8.98-3.71-12.79-7.51-12.79
		c-3.76,0-7.36,3.75-7.77,12.79c0,0.54-0.3,0.89-0.71,0.89h-4.77C158.69,124.89,158.34,124.48,158.34,123.88z"/>
</g>
<path class="st1" d="M123.47,147.7v-41.09c0-0.53,0.47-0.94,1-0.94h5.55c0.53,0,1,0.4,1,0.94v15.63l12.89-16.3
	c0.13-0.2,0.4-0.27,0.67-0.27h6.01c1.2,0,1.74,1.27,1,2.14L131.02,133v14.7c0,0.53-0.47,1-1,1h-5.55
	C123.93,148.7,123.47,148.23,123.47,147.7z M146.92,148.43c-2.34-2.67-6.48-10.29-8.28-13.09c-0.6-0.8-1.07-1.4-1.74-1.87
	c-0.47-0.4-0.53-0.87-0.13-1.4l3.34-4.08c0.33-0.47,0.87-0.67,1.07-0.47c0.67,0.33,1.14,0.74,1.67,1.34
	c1.94,2,7.68,11.89,11.83,17.77c0.67,0.94,0.07,2.07-1.07,2.07h-6.08C147.32,148.7,147.05,148.57,146.92,148.43z"/>
</svg>
