<?xml version="1.0" encoding="utf-8"?>
<!-- Generator: Adobe Illustrator 27.0.0, SVG Export Plug-In . SVG Version: 6.00 Build 0)  -->
<svg version="1.1" id="Layer_1" xmlns="http://www.w3.org/2000/svg" xmlns:xlink="http://www.w3.org/1999/xlink" x="0px" y="0px"
	 viewBox="0 0 453.54 255.12" style="enable-background:new 0 0 453.54 255.12;" xml:space="preserve">
<style type="text/css">
	.st0{fill:#8FB5BC;}
	.st1{fill:none;stroke:#FFFFFF;stroke-width:10.6159;stroke-miterlimit:10;}
	.st2{fill:none;stroke:#FFFFFF;stroke-width:10.4;stroke-miterlimit:10;}
	.st3{fill:none;stroke:#FFFFFF;stroke-width:10;stroke-miterlimit:10;}
</style>
<g>
	<g>
		<path class="st0" d="M284.5,192.51h-88.52c-7.11,0-12.93-5.82-12.93-12.93V75.54c0-7.11,5.82-12.93,12.93-12.93h88.52
			c7.11,0,12.93,5.82,12.93,12.93v104.03C297.43,186.69,291.61,192.51,284.5,192.51z"/>
	</g>
</g>
<g>
	<g>
		<path class="st1" d="M222.69,130.32c0,0,9.61-32.44,9.83-32.89c3.79-7.72,15.02-6.36,16.93,0c0.26,0.86,17.3,64.52,15.53,61.68
			l-48,0.09"/>
	</g>
	<path class="st2" d="M224.97,159.53h-9.33c-0.15,0-0.26-0.12-0.26-0.26v-0.14c0-0.15,0.12-0.26,0.26-0.26h9.33
		c0.15,0,0.26,0.12,0.26,0.26v0.14C225.23,159.41,225.11,159.53,224.97,159.53z"/>
	<path class="st3" d="M222.46,130.48l2.51-9.04c0.03-0.13,0.17-0.2,0.29-0.17l0.06,0.02c0.13,0.03,0.2,0.17,0.17,0.29l-2.51,9.04
		c-0.03,0.13-0.17,0.2-0.29,0.17l-0.06-0.02C222.5,130.74,222.42,130.61,222.46,130.48z"/>
</g>
</svg>
